<svg width="24" height="24" xmlns="http://www.w3.org/2000/svg">

 <g>
  <title>background</title>
  <rect fill="none" id="canvas_background" height="402" width="582" y="-1" x="-1"/>
 </g>
 <g>
  <title>Layer 1</title>
  <path fill="#BBBBBB" id="svg_1" d="m22,15.04c0,2.19 -1.76,3.96 -3.93,3.96l-12.14,0c-2.17,0 -3.93,-1.77 -3.93,-3.96c0,-1.97 1.43,-3.6 3.31,-3.9c-0.03,-0.14 -0.04,-0.28 -0.04,-0.43c0,-1.38 1.11,-2.51 2.49,-2.51c0.61,0 1.18,0.23 1.61,0.6c0.77,-1.75 1.76,-3.36 4.54,-3.36c3.37,0 4.96,2.62 4.96,5.39c0,0.11 0,0.23 -0.01,0.34c1.79,0.37 3.14,1.96 3.14,3.87z"/>
 </g>
</svg>