<svg width="24" height="24" xmlns="http://www.w3.org/2000/svg">

 <g>
  <title>background</title>
  <rect fill="none" id="canvas_background" height="402" width="582" y="-1" x="-1"/>
 </g>
 <g>
  <title>Layer 1</title>
  <path fill="#BBBBBB" id="svg_1" d="m7,5l14,0l0,2l-14,0l0,-2m0,8l0,-2l14,0l0,2l-14,0m-3,-8.5a1.5,1.5 0 0 1 1.5,1.5a1.5,1.5 0 0 1 -1.5,1.5a1.5,1.5 0 0 1 -1.5,-1.5a1.5,1.5 0 0 1 1.5,-1.5m0,6a1.5,1.5 0 0 1 1.5,1.5a1.5,1.5 0 0 1 -1.5,1.5a1.5,1.5 0 0 1 -1.5,-1.5a1.5,1.5 0 0 1 1.5,-1.5m3,8.5l0,-2l14,0l0,2l-14,0m-3,-2.5a1.5,1.5 0 0 1 1.5,1.5a1.5,1.5 0 0 1 -1.5,1.5a1.5,1.5 0 0 1 -1.5,-1.5a1.5,1.5 0 0 1 1.5,-1.5z"/>
 </g>
</svg>