<svg width="23.999999999999996" height="23.999999999999996" xmlns="http://www.w3.org/2000/svg">

 <g>
  <title>background</title>
  <rect fill="none" id="canvas_background" height="402" width="582" y="-1" x="-1"/>
 </g>
 <g>
  <title>Layer 1</title>
  <path fill="#BBBBBB" id="svg_1" d="m12,17a2,2 0 0 0 2,-2c0,-1.11 -0.9,-2 -2,-2a2,2 0 0 0 -2,2a2,2 0 0 0 2,2m6,-9a2,2 0 0 1 2,2l0,10a2,2 0 0 1 -2,2l-12,0a2,2 0 0 1 -2,-2l0,-10c0,-1.11 0.9,-2 2,-2l1,0l0,-2a5,5 0 0 1 5,-5a5,5 0 0 1 5,5l0,2l1,0m-6,-5a3,3 0 0 0 -3,3l0,2l6,0l0,-2a3,3 0 0 0 -3,-3z"/>
 </g>
</svg>