<svg width="24" height="24" xmlns="http://www.w3.org/2000/svg">

 <g>
  <title>background</title>
  <rect fill="none" id="canvas_background" height="402" width="582" y="-1" x="-1"/>
 </g>
 <g>
  <title>Layer 1</title>
  <path fill="#BBBBBB" id="svg_1" d="m15.45,11.91c-0.11,-2.21 -1.75,-3.54 -3.73,-3.54l-0.08,0c-2.29,0 -3.55,1.8 -3.55,3.84c0,2.29 1.53,3.74 3.54,3.74c2.25,0 3.72,-1.65 3.83,-3.59m-3.81,-5.97c1.530001,0 2.97,0.68 4.02,1.74l0,0c0,-0.51 0.33,-0.89 0.83,-0.89l0.110001,0c0.74,0 0.889999,0.7 0.889999,0.92l0,7.9c-0.040001,0.52 0.540001,0.780001 0.870001,0.440001c1.269999,-1.29 2.779999,-6.69 -0.790001,-9.81c-3.33,-2.92 -7.8,-2.44 -10.18,-0.8c-2.52,1.74 -4.14,5.61 -2.57,9.22c1.71,3.95 6.61,5.13 9.52,3.95c1.48,-0.59 2.15,1.4 0.65,2.050001c-2.34,0.99 -8.77,0.889999 -11.78,-4.32c-2.03,-3.52 -1.93,-9.710001 3.46,-12.920001c4.130001,-2.45 9.56,-1.77 12.82,1.63c3.450001,3.6 3.25,10.3 -0.1,12.91c-1.51,1.18 -3.759999,0.030001 -3.74,-1.700001l-0.02,-0.559999c-1.05,1.050001 -2.46,1.66 -3.990001,1.66c-3.02,0 -5.65,-2.66 -5.65,-5.679999c0,-3.05 2.63,-5.74 5.65,-5.74z"/>
 </g>
</svg>