<svg width="24" height="24" xmlns="http://www.w3.org/2000/svg">

 <g>
  <title>background</title>
  <rect fill="none" id="canvas_background" height="402" width="582" y="-1" x="-1"/>
 </g>
 <g>
  <title>Layer 1</title>
  <path fill="#BBBBBB" id="svg_1" d="m6.62,10.79c1.440001,2.83 3.76,5.150001 6.59,6.589999l2.2,-2.199999c0.280001,-0.280001 0.67,-0.360001 1.02,-0.25c1.119999,0.37 2.32,0.57 3.57,0.57a1,1 0 0 1 1,1l0,3.5a1,1 0 0 1 -1,1a17,17 0 0 1 -17,-17a1,1 0 0 1 1,-1l3.5,0a1,1 0 0 1 1,1c0,1.25 0.2,2.45 0.57,3.57c0.110001,0.35 0.030001,0.74 -0.25,1.02l-2.2,2.2z"/>
 </g>
</svg>